<svg version="1.1" id="Capa_1" xmlns="http://www.w3.org/2000/svg" xmlns:xlink="http://www.w3.org/1999/xlink" x="0px" y="0px"
	 viewBox="0 0 1200 1200" style="enable-background:new 0 0 1200 1200;" xml:space="preserve">
<g>
	<g>
		<path class="st1" d="M479.21,275.78c0.14-0.19,0.28-0.38,0.44-0.56c0.16-0.18,0.32-0.36,0.49-0.52c2.55-3.58,1.98-8.59-1.43-11.48
			c-3.59-3.05-9-2.6-12.04,0.99c-3.05,3.59-2.6,9,0.99,12.04C471.07,279.14,476.1,278.89,479.21,275.78z"/>
		<path class="st1" d="M1033.04,473.28L931.77,484.7c9.09-60.43-18.2-211.4-18.2-211.4C873.48,89.55,588.94,117.52,588.94,117.52
			c-252.31-11.79-303.76,146.57-303.76,146.57c-12.04,47.74-22.35,161.49-25.63,200.43l0-0.06l-90.74,4.95
			c-49.34-2.11,29.47,98.23,29.47,98.23c9.14,14.11,33.27,24.01,58.93,30.83c-21.78,110.69,2.11,191.91,46.06,245.7
			c24.42,29.88,54.94,51.2,87.27,64.37c54.02,22,161.99,26.55,202.39-20.92c40.42,47.48,148.46,42.86,202.49,20.84
			c32.38-13.19,62.9-34.5,87.26-64.31c44.02-53.86,67.91-135.21,45.92-246.09l-0.06-0.06c-0.58-2.87-1.64-5.54-2.99-7.99
			c96.15-21.72,115.92-90.79,115.92-90.79C1060.07,467.04,1033.04,473.28,1033.04,473.28z M455.91,255.09
			c8.07-9.52,22.39-10.7,31.91-2.63c7.15,6.06,9.59,15.63,6.96,24.05c54.7,47.3,68.2,88.05,85.21,139.42
			c1.43,4.33,2.9,8.74,4.41,13.25c9.76,29.01,32.05,49.48,59.62,54.76c24.73,4.74,48.8-3.41,64.37-21.78
			c14.99-17.68,21.41-35.92,19.09-54.22c-1.58-12.5-7.39-24.99-16.86-36.68c-0.05,0.69-0.12,1.38-0.22,2.06
			c-0.62,5.03-2.15,9.86-4.59,14.1l-0.94,1.57l-0.47,0.77c-0.17,0.25-0.36,0.5-0.55,0.74c-0.76,0.98-1.48,1.94-2.3,2.84
			c-0.75,0.93-1.71,1.76-2.62,2.58c-0.81,0.68-1.6,1.34-2.48,1.94c-0.32,0.22-0.72,0.27-1.09,0.15l-0.01,0
			c-0.62-0.2-0.98-0.84-0.83-1.47l0.41-1.73c0.22-0.94,0.5-1.88,0.63-2.84l0.49-2.86l0.12-0.71l0.06-0.72l0.13-1.44
			c0.07-0.96,0.25-1.91,0.24-2.87l0.07-2.88c0.04-0.96-0.09-1.91-0.12-2.87l-0.08-1.43c-0.02-0.48-0.12-0.95-0.18-1.42
			c-0.43-3.8-1.35-7.52-2.64-11.1c-0.35-0.88-0.62-1.8-1.04-2.66l-1.19-2.6l-1.36-2.52c-0.44-0.85-1-1.63-1.49-2.45
			c-2.02-3.24-4.36-6.31-6.95-9.16c-2.57-2.87-5.45-5.46-8.39-7.98c-2.97-2.49-6.1-4.8-9.37-6.91c-2.92-1.94-5.97-3.73-9.07-5.32
			c-0.58-0.29-0.83-0.97-0.58-1.57c0.15-0.36,0.46-0.64,0.84-0.74c2.33-0.61,4.55-0.82,6.76-0.9c2.41-0.09,4.74,0.09,7.07,0.39
			c1.15,0.16,2.28,0.4,3.43,0.62c1.13,0.25,2.24,0.57,3.36,0.88c2.23,0.64,4.39,1.48,6.5,2.46c4.05,1.87,7.91,4.34,11.41,7.35
			c0.63,0.25,1.25,0.58,1.83,0.99c28.62,20.24,46.22,45.87,49.56,72.17c2.93,23.07-5.07,46.53-23.13,67.83
			c-19.74,23.29-50.07,33.64-81.13,27.7c-33.9-6.49-61.19-31.33-73.01-66.45c-1.52-4.53-2.99-8.97-4.44-13.32
			c-16.77-50.64-28.98-87.47-79.89-131.53c-7.87,3.96-17.7,3.1-24.83-2.95C449.02,278.93,447.84,264.62,455.91,255.09z
			 M495.73,827.22c-18.01,6.7-41.68,9.31-66.86,6.32c-0.79-0.09-0.04-0.02-2.51-0.35c-25.9-3.39-48.91-12.04-65.17-23.3
			c-40.31-27.9-36.24-70.44,10.29-87.64c18.1-6.69,41.96-9.25,67.38-6.11c2.14,0.26-1.42-0.16,1.71,0.26
			c25.91,3.39,48.91,12.05,65.16,23.3C545.88,767.51,542.15,809.95,495.73,827.22z M824.79,809.89
			c-16.25,11.26-39.26,19.91-65.18,23.31c-2.42,0.32-1.55,0.24-2.42,0.34c-25.26,3.01-48.95,0.4-66.97-6.3
			c-46.33-17.23-50.18-59.71-10.07-87.51c16.24-11.25,39.24-19.91,65.16-23.31c2.51-0.33,1.64-0.25,2.46-0.34
			c25.25-3,48.94-0.39,66.94,6.31C860.98,739.6,864.92,782.07,824.79,809.89z M747.73,645.51c-55.7,1.58-112.61-23.11-154.78,32.39
			c-41.9-55.22-98.86-30.65-154.64-32.36c-43.54-1.33-86.22-2.76-116.32-35.19c9.61,1.14,15.7,1.62,15.7,1.62
			c220.08,29.22,441.79,2.16,534.93-12.39C842.36,642.79,795.57,644.15,747.73,645.51z"/>
	</g>
	<path class="st1" d="M862.52,998.21c-8.55,6.33-17.42,12.23-26.88,17.13c-21.2,11.01-50.71,21.92-74.78,15.59
		c-7.36-1.95-13.81-5.78-19.43-10.89c-4.31-3.9-7.77-8.45-10.84-13.26c-9.22-14.6-14.59-31.97-27.57-43.91
		c-17.52-16.05-40.19-21.28-63.3-16.74c-13.33,2.62-30.61,17.67-38.37,28.25c-1.39,1.9-2.36,4.01-3.5,6.04
		c-1.15-2.15-2.15-4.37-3.58-6.37c-7.61-10.68-24.72-25.96-38.01-28.73c-23.04-4.81-45.79,0.09-63.5,15.93
		c-13.14,11.77-18.72,29.07-28.14,43.56c-3.1,4.8-6.64,9.26-11.01,13.11c-5.66,5.03-12.17,8.79-19.55,10.64
		c-24.14,6.04-53.52-5.26-74.58-16.52c-9.38-5.04-18.18-11.01-26.63-17.47c-1.95-1.48-8.73-5.08-9.66-7.56
		c6.57,17.33,17.68,35.89,29.47,50.19c42.02,50.87,116.83,49.46,175.62,40.09c27.39-4.37,55.73-15.6,69.06-39.74
		c12.94,24.49,41.25,36.17,68.7,40.9c58.65,10.13,133.45,12.5,176.09-37.85c11.96-14.15,23.33-32.57,30.11-49.81
		C871.3,993.25,864.47,996.77,862.52,998.21z"/>
</g>
</svg>
